<?xml version="1.0" encoding="UTF-8"?>
<svg
  xmlns="http://www.w3.org/2000/svg"
  width="400"
  height="400"
  viewBox="0 0 400 400"
>
  <defs>
    <linearGradient id="bgGradient" x1="0" y1="0" x2="1" y2="1">
      <stop offset="0%" stop-color="#0f1f8f"/>
      <stop offset="100%" stop-color="#1e40af"/>
    </linearGradient>
  </defs>

  <!-- Background -->
  <rect
    width="400"
    height="400"
    rx="60"
    fill="url(#bgGradient)"
  />

  <!-- Centered Cloud Group -->
  <g transform="translate(70,50)">
    
    <!-- Main Cloud -->
    <path
      d="M183.568 144
         a72 72 0 0 0-139.52-15.84
         A48 48 0 0 0 48 224
         h136
         a40 40 0 1 0-.432-80z"
      fill="white"
    />

    <!-- Back Cloud Layer -->
    <path
      d="M232.704 156.352
         a56.096 56.096 0 0 0-35.6-26.816
         a88.032 88.032 0 0 0-101.392-64.032
         a64.032 64.032 0 0 1 118.272 14.56
         a40 40 0 0 1 18.72 76.304z"
      fill="white"
    />

  </g>
</svg>
